<svg width="256" height="256" viewBox="0 0 256 256" fill="none" xmlns="http://www.w3.org/2000/svg">
<g clip-path="url(#clip0_349_105)">
<path d="M224 0H32C14.3269 0 0 14.3269 0 32V224C0 241.673 14.3269 256 32 256H224C241.673 256 256 241.673 256 224V32C256 14.3269 241.673 0 224 0Z" fill="url(#paint0_linear_349_105)"/>
<path d="M176 93H80C78.8954 93 78 93.8954 78 95V111C78 112.105 78.8954 113 80 113H176C177.105 113 178 112.105 178 111V95C178 93.8954 177.105 93 176 93Z" fill="#FFA500"/>
<path d="M103 93H83V113H103V93Z" fill="#1A1A1A"/>
<path d="M133 93H113V113H133V93Z" fill="#1A1A1A"/>
<path d="M163 93H143V113H163V93Z" fill="#1A1A1A"/>
<path d="M176 118H80C78.8954 118 78 118.895 78 120V136C78 137.105 78.8954 138 80 138H176C177.105 138 178 137.105 178 136V120C178 118.895 177.105 118 176 118Z" fill="#FFA500"/>
<path d="M108 118H88V138H108V118Z" fill="#1A1A1A"/>
<path d="M138 118H118V138H138V118Z" fill="#1A1A1A"/>
<path d="M168 118H148V138H168V118Z" fill="#1A1A1A"/>
<path d="M176 143H80C78.8954 143 78 143.895 78 145V161C78 162.105 78.8954 163 80 163H176C177.105 163 178 162.105 178 161V145C178 143.895 177.105 143 176 143Z" fill="#FFA500"/>
<path d="M103 143H83V163H103V143Z" fill="#1A1A1A"/>
<path d="M133 143H113V163H133V143Z" fill="#1A1A1A"/>
<path d="M163 143H143V163H163V143Z" fill="#1A1A1A"/>
<path opacity="0.9" d="M84 163H76V188H84V163Z" fill="white"/>
<path opacity="0.9" d="M180 163H172V188H180V163Z" fill="white"/>
<path opacity="0.8" d="M187 188H69C68.4477 188 68 188.448 68 189V193C68 193.552 68.4477 194 69 194H187C187.552 194 188 193.552 188 193V189C188 188.448 187.552 188 187 188Z" fill="white"/>
</g>
<defs>
<linearGradient id="paint0_linear_349_105" x1="0" y1="0" x2="25600" y2="25600" gradientUnits="userSpaceOnUse">
<stop stop-color="#128FD8"/>
<stop offset="1" stop-color="#26A683"/>
</linearGradient>
<clipPath id="clip0_349_105">
<rect width="256" height="256" fill="white"/>
</clipPath>
</defs>
</svg>
